<svg xmlns="http://www.w3.org/2000/svg" viewBox="0 0 300 300" width="300" height="300"><path d="M290 63.137a114.194 114.194 0 0 1-33.006 9.042c11.866-7.101 20.952-18.349 25.276-31.777-11.099 6.582-23.394 11.377-36.48 13.942-10.483-11.156-25.411-18.137-41.934-18.137-31.724 0-57.447 25.723-57.447 57.442 0 4.497.523 8.893 1.489 13.092-47.757-2.378-90.069-25.271-118.421-60.022-4.943 8.48-7.778 18.358-7.778 28.884 0 19.943 10.133 37.504 25.555 47.824-9.421-.303-18.281-2.873-26.016-7.197-.015.254-.015.504-.015.745 0 27.808 19.799 51.063 46.089 56.318-4.813 1.34-9.888 2.021-15.134 2.021-3.704 0-7.303-.336-10.806-1.031 7.313 22.82 28.524 39.443 53.652 39.904-19.65 15.404-44.418 24.59-71.342 24.59-4.627 0-9.201-.27-13.684-.787 25.421 16.287 55.622 25.799 88.062 25.799 105.665 0 163.453-87.531 163.453-163.458 0-2.493-.048-4.973-.178-7.428A115.828 115.828 0 0 0 290 63.137z"/></svg>