<svg xmlns="http://www.w3.org/2000/svg" viewBox="0 0 300 300" width="300" height="300">
	<path d="M290,63.137c-10.301,4.574-21.375,7.668-33.006,9.042c11.866-7.101,20.952-18.349,25.276-31.777 c-11.099,6.582-23.394,11.377-36.48,13.942c-10.483-11.156-25.411-18.137-41.934-18.137c-31.724,0-57.447,25.723-57.447,57.442 c0,4.497,0.523,8.893,1.489,13.092c-47.757-2.378-90.069-25.271-118.421-60.022c-4.943,8.48-7.778,18.358-7.778,28.884 c0,19.943,10.133,37.504,25.555,47.824c-9.421-0.303-18.281-2.873-26.016-7.197c-0.015,0.254-0.015,0.504-0.015,0.745 c0,27.808,19.799,51.063,46.089,56.318c-4.813,1.34-9.888,2.021-15.134,2.021c-3.704,0-7.303-0.336-10.806-1.031 c7.313,22.82,28.524,39.443,53.652,39.904c-19.65,15.404-44.418,24.59-71.342,24.59c-4.627,0-9.201-0.27-13.684-0.787 c25.421,16.287,55.622,25.799,88.062,25.799c105.665,0,163.453-87.531,163.453-163.458c0-2.493-0.048-4.973-0.178-7.428 C272.565,84.811,282.313,74.692,290,63.137z" fill="#000" />
</svg>
