<svg xmlns="http://www.w3.org/2000/svg" viewBox="0 0 300 300" width="300" height="300">
	<path d="M224.097,198.114h12.021c3.224,0,5.828-2.594,5.828-5.828v-42.225h42.205c3.215,0,5.849-2.61,5.849-5.829 l-0.02-12.038c0-3.213-2.631-5.848-5.849-5.848h-42.205v-42.2c0-3.224-2.595-5.833-5.829-5.833h-12.021 c-3.229,0-5.844,2.594-5.844,5.833v42.2h-42.226c-3.198,0-5.827,2.635-5.827,5.848v12.038c0,3.219,2.629,5.829,5.827,5.829h42.241 v42.225C218.248,195.51,220.867,198.114,224.097,198.114z" fill="#000" />
	<path d="M14.463,207.364C11.508,213.67,10,220.042,10,226.322c0,6.066,1.559,11.936,4.651,17.47 c7.113,12.769,22.435,22.684,43.124,27.883c10.692,2.695,22.167,4.087,34.087,4.087c10.723,0,20.917-1.406,30.375-4.118 c29.436-8.554,48.475-30.228,48.48-55.201c0-24.024-7.723-38.393-28.426-53.039c-8.87-6.285-16.927-15.49-17.1-18.333 c0-5.194,0.473-7.636,12.038-16.647c14.972-11.738,23.207-27.121,23.207-43.408c0-14.753-4.492-27.857-12.189-37.057h5.924 c1.229,0,2.438-0.391,3.442-1.112l16.597-12.018c2.061-1.487,2.96-4.117,2.153-6.544c-0.787-2.406-3.011-4.046-5.545-4.046H96.553 c-8.149,0-16.383,1.432-24.491,4.234c-27.076,9.327-45.998,32.371-45.998,56.061c0,33.533,26.009,58.969,60.721,59.771 c-0.655,2.66-0.996,5.25-0.996,7.844c0,5.153,1.315,10.063,4.011,14.805c-0.324,0-0.639,0-0.975,0 C55.708,166.962,25.831,183.193,14.463,207.364z M64.395,83.619c-1.609-12.281,0.939-23.298,7.072-30.3 c3.95-4.513,9.128-6.884,14.952-6.884h0.64c16.424,0.473,32.122,18.775,35.021,40.799c1.615,12.322-1.091,23.923-7.316,30.959 c-3.95,4.518-9.047,6.904-15.109,6.904h-0.259C83.317,124.6,67.274,105.607,64.395,83.619z M95.938,185.544h0.696 c5.499,0.071,10.87,0.884,15.932,2.447c1.721,1.188,3.392,2.33,5.011,3.416c11.698,7.967,19.455,13.246,21.618,21.729 c0.487,2.107,0.731,4.229,0.731,6.301c0,21.766-16.236,32.782-48.201,32.782c-24.263,0-43.245-14.891-43.245-33.874 C48.479,200.877,70.655,185.544,95.938,185.544z" fill="#000" />
</svg>
