<svg xmlns="http://www.w3.org/2000/svg" viewBox="0 0 300 300" width="300" height="300"><path d="M224.097 198.114h12.021a5.815 5.815 0 0 0 5.828-5.828v-42.225h42.205c3.215 0 5.849-2.61 5.849-5.829l-.02-12.038c0-3.213-2.631-5.848-5.849-5.848h-42.205v-42.2a5.82 5.82 0 0 0-5.829-5.833h-12.021a5.826 5.826 0 0 0-5.844 5.833v42.2h-42.226c-3.198 0-5.827 2.635-5.827 5.848v12.038c0 3.219 2.629 5.829 5.827 5.829h42.241v42.225c.001 3.224 2.62 5.828 5.85 5.828z"/><path d="M14.463 207.364C11.508 213.67 10 220.042 10 226.322c0 6.066 1.559 11.936 4.651 17.47 7.113 12.769 22.435 22.684 43.124 27.883 10.692 2.695 22.167 4.087 34.087 4.087 10.723 0 20.917-1.406 30.375-4.118 29.436-8.554 48.475-30.228 48.48-55.201 0-24.024-7.723-38.393-28.426-53.039-8.87-6.285-16.927-15.49-17.1-18.333 0-5.194.473-7.636 12.038-16.647 14.972-11.738 23.207-27.121 23.207-43.408 0-14.753-4.492-27.857-12.189-37.057h5.924a5.916 5.916 0 0 0 3.442-1.112l16.597-12.018c2.061-1.487 2.96-4.117 2.153-6.544-.787-2.406-3.011-4.046-5.545-4.046H96.553c-8.149 0-16.383 1.432-24.491 4.234C44.986 37.8 26.064 60.844 26.064 84.534c0 33.533 26.009 58.969 60.721 59.771-.655 2.66-.996 5.25-.996 7.844 0 5.153 1.315 10.063 4.011 14.805h-.975c-33.117.008-62.994 16.239-74.362 40.41zM64.395 83.619c-1.609-12.281.939-23.298 7.072-30.3 3.95-4.513 9.128-6.884 14.952-6.884h.64c16.424.473 32.122 18.775 35.021 40.799 1.615 12.322-1.091 23.923-7.316 30.959-3.95 4.518-9.047 6.904-15.109 6.904h-.259c-16.079-.497-32.122-19.49-35.001-41.478zm31.543 101.925h.696c5.499.071 10.87.884 15.932 2.447a456.87 456.87 0 0 0 5.011 3.416c11.698 7.967 19.455 13.246 21.618 21.729.487 2.107.731 4.229.731 6.301 0 21.766-16.236 32.782-48.201 32.782-24.263 0-43.245-14.891-43.245-33.874-.001-17.468 22.175-32.801 47.458-32.801z"/></svg>